<svg xmlns="http://www.w3.org/2000/svg" viewBox="0 0 1600 900"><defs><linearGradient id="b" x1="0" y1="0" x2="1" y2="1"><stop stop-color="#17130d"/><stop offset=".5" stop-color="#31404a"/><stop offset="1" stop-color="#171108"/></linearGradient><radialGradient id="g"><stop stop-color="#e0aa54" stop-opacity=".38"/><stop offset="1" stop-color="#000" stop-opacity="0"/></radialGradient></defs><rect width="1600" height="900" fill="url(#b)"/><circle cx="170" cy="220" r="300" fill="url(#g)"/><circle cx="1430" cy="220" r="300" fill="url(#g)"/>
<g fill="#b18b55" opacity=".52"><path d="M40 510h250V360l125-82 125 82v150z"/><path d="M1060 510h470V360l-105-80-95 75-105-120-110 120z"/></g>
<g fill="#15110d" stroke="#876237" stroke-width="4"><rect x="60" y="100" width="250" height="240" rx="16"/><rect x="1290" y="90" width="250" height="250" rx="16"/></g>
<g fill="#6d5234"><path d="M100 305l55-120 55 120z"/><rect x="215" y="175" width="48" height="130"/><path d="M1320 305h80v-90h60v90h55v-135h40v135z"/></g>
<rect x="210" y="555" width="1180" height="245" rx="24" fill="#1a1510" stroke="#8d6636" stroke-width="4"/><path d="M340 610h920l100 135H240z" fill="#bf9a61" opacity=".72"/>
<g fill="#51402c" stroke="#ad8447" stroke-width="3"><path d="M420 700h95v-75h-95z"/><path d="M445 625v-75h45v75"/><path d="M670 690h120v-95H670z"/><path d="M700 595v-95h60v95"/><path d="M975 700h105l42-100H933z"/></g>
<g fill="none" stroke="#a97f43" stroke-width="4"><path d="M500 650c110-70 210-65 310 0s205 60 310-10"/><circle cx="500" cy="650" r="10" fill="#a97f43"/><circle cx="810" cy="650" r="10" fill="#a97f43"/><circle cx="1120" cy="640" r="10" fill="#a97f43"/></g></svg>